<?xml version="1.0" encoding="UTF-8" standalone="no"?>
<!-- Created with Inkscape (http://www.inkscape.org/) -->

<svg
   xmlns:dc="http://purl.org/dc/elements/1.1/"
   xmlns:cc="http://creativecommons.org/ns#"
   xmlns:rdf="http://www.w3.org/1999/02/22-rdf-syntax-ns#"
   xmlns:svg="http://www.w3.org/2000/svg"
   xmlns="http://www.w3.org/2000/svg"
   xmlns:sodipodi="http://sodipodi.sourceforge.net/DTD/sodipodi-0.dtd"
   xmlns:inkscape="http://www.inkscape.org/namespaces/inkscape"
   width="131.63503mm"
   height="124.83587mm"
   viewBox="0 0 131.63503 124.83587"
   version="1.1"
   id="svg4901"
   inkscape:version="0.92.1 r15371"
   sodipodi:docname="arrows.svg">
  <defs
     id="defs4895" />
  <sodipodi:namedview
     id="base"
     pagecolor="#ffffff"
     bordercolor="#666666"
     borderopacity="1.0"
     inkscape:pageopacity="0.0"
     inkscape:pageshadow="2"
     inkscape:zoom="0.35"
     inkscape:cx="93.04487"
     inkscape:cy="27.338899"
     inkscape:document-units="mm"
     inkscape:current-layer="layer1"
     showgrid="false"
     inkscape:window-width="1920"
     inkscape:window-height="1001"
     inkscape:window-x="-9"
     inkscape:window-y="-9"
     inkscape:window-maximized="1" />
  <metadata
     id="metadata4898">
    <rdf:RDF>
      <cc:Work
         rdf:about="">
        <dc:format>image/svg+xml</dc:format>
        <dc:type
           rdf:resource="http://purl.org/dc/dcmitype/StillImage" />
        <dc:title></dc:title>
      </cc:Work>
    </rdf:RDF>
  </metadata>
  <g
     inkscape:label="Layer 1"
     inkscape:groupmode="layer"
     id="layer1"
     transform="translate(-38.503902,-72.052312)">
    <g
       id="g4882"
       transform="matrix(0,1.5983011,-1.5983011,0,568.41977,-485.93514)"
       style="fill:#246a00;fill-opacity:1;stroke-width:0.62566435">
      <path
         style="opacity:1;fill:#246a00;fill-opacity:1;fill-rule:evenodd;stroke:none;stroke-width:8.27701569;stroke-linecap:round;stroke-linejoin:round;stroke-miterlimit:4;stroke-dasharray:none;stroke-dashoffset:0;stroke-opacity:1"
         d="m 360.55041,283.69975 -11.43756,19.81017 h 6.40323 a 33.114691,33.114691 0 0 0 9.26767,18.34047 33.114691,33.114691 0 0 0 46.83125,0 33.114691,33.114691 0 0 0 9.25316,-18.20558 l -10.06864,-0.0248 a 23.198993,23.198993 0 0 1 -6.19598,11.21894 23.198993,23.198993 0 0 1 -32.80834,0 23.198993,23.198993 0 0 1 -6.20635,-11.32901 h 6.39857 z"
         id="path4838"
         inkscape:connector-curvature="0" />
      <path
         inkscape:connector-curvature="0"
         id="path4878"
         d="m 415.78064,297.03983 11.43756,-19.81017 h -6.40323 a 33.114691,33.114691 0 0 0 -9.26767,-18.34047 33.114691,33.114691 0 0 0 -46.83125,0 33.114691,33.114691 0 0 0 -9.25316,18.20558 l 10.06864,0.0248 a 23.198993,23.198993 0 0 1 6.19598,-11.21894 23.198993,23.198993 0 0 1 32.80834,0 23.198993,23.198993 0 0 1 6.20635,11.32901 h -6.39857 z"
         style="opacity:1;fill:#246a00;fill-opacity:1;fill-rule:evenodd;stroke:none;stroke-width:8.27701569;stroke-linecap:round;stroke-linejoin:round;stroke-miterlimit:4;stroke-dasharray:none;stroke-dashoffset:0;stroke-opacity:1" />
    </g>
  </g>
</svg>
